<svg height="452pt" viewBox="-70 0 452 452.36018" width="452pt" xmlns="http://www.w3.org/2000/svg"><path d="m65 22.355469c-1.949219 23.125-26.046875 26.777343-26.046875 26.777343 20.691406.976563 25.847656 28.121094 25.847656 28.121094.445313-19.355468 26.644531-28.40625 26.644531-28.40625-19.628906-1.171875-26.445312-26.492187-26.445312-26.492187zm0 0" fill="#d7e057"/><path d="m91.621094 45.855469c-17.207032-1.035157-23.664063-24.050781-23.726563-24.285157-.382812-1.40625-1.722656-2.34375-3.167969-2.203124-1.449218.132812-2.597656 1.285156-2.71875 2.734374-1.71875 20.433594-22.625 23.929688-23.507812 24.066407-1.527344.230469-2.625 1.582031-2.546875 3.121093.082031 1.542969 1.316406 2.769532 2.855469 2.839844 18.058594.851563 23 25.4375 23.046875 25.6875.273437 1.421875 1.519531 2.433594 2.945312 2.433594.082031 0 .167969-.003906.25-.011719 1.53125-.125 2.714844-1.382812 2.75-2.917969.390625-17.019531 24.382813-25.554687 24.625-25.636718 1.351563-.46875 2.183594-1.828125 1.988281-3.246094-.195312-1.414062-1.363281-2.496094-2.792968-2.582031zm-27.132813 20.6875c-2.710937-6.257813-7.417969-13.8125-15.171875-17.75 5.863282-2.8125 12.816406-7.828125 16.402344-16.546875 3.101562 6.140625 8.402344 13.761718 16.667969 17.445312-6.011719 3.28125-13.84375 8.808594-17.898438 16.851563zm0 0" fill="#3a312a"/><path d="m21.601562 56.316406c-1.378906 16.359375-18.421874 18.941406-18.421874 18.941406 14.632812.6875 18.28125 19.886719 18.28125 19.886719.3125-13.6875 18.84375-20.089843 18.84375-20.089843-13.878907-.832032-18.703126-18.738282-18.703126-18.738282zm0 0" fill="#d7e057"/><path d="m40.484375 72.058594c-11.53125-.691406-15.941406-16.371094-15.984375-16.53125-.382812-1.402344-1.710938-2.335938-3.164062-2.203125-1.453126.128906-2.601563 1.285156-2.722657 2.734375-1.15625 13.742187-15.292969 16.132812-15.882812 16.226562-1.527344.234375-2.625 1.582032-2.546875 3.121094.082031 1.542969 1.316406 2.773438 2.855468 2.84375 12.070313.566406 15.445313 17.289062 15.476563 17.453125.269531 1.425781 1.519531 2.441406 2.945313 2.441406.082031 0 .164062-.003906.25-.011719 1.527343-.125 2.714843-1.382812 2.75-2.921874.261718-11.417969 16.664062-17.265626 16.824218-17.320313 1.351563-.464844 2.1875-1.828125 1.992188-3.246094-.195313-1.417969-1.363282-2.5-2.792969-2.585937zm-19.167969 13.589844c-1.847656-3.769532-4.679687-7.894532-8.894531-10.558594 3.710937-2.082032 7.394531-5.257813 9.742187-9.832032 2.113282 3.746094 5.308594 7.910157 9.882813 10.449219-3.699219 2.199219-7.980469 5.476563-10.730469 9.941407zm0 0" fill="#3a312a"/><path d="m21.601562 3c-1.378906 16.359375-18.421874 18.941406-18.421874 18.941406 14.632812.6875 18.28125 19.890625 18.28125 19.890625.3125-13.691406 18.84375-20.09375 18.84375-20.09375-13.878907-.832031-18.703126-18.738281-18.703126-18.738281zm0 0" fill="#d7e057"/><path d="m40.484375 18.746094c-11.53125-.691406-15.945313-16.371094-15.984375-16.53125-.382812-1.40625-1.710938-2.324219-3.164062-2.2031252-1.453126.1289062-2.601563 1.2851562-2.722657 2.7343752-1.15625 13.742187-15.292969 16.132812-15.882812 16.226562-1.527344.230469-2.625 1.582032-2.546875 3.121094.082031 1.542969 1.316406 2.769531 2.855468 2.84375 12.070313.566406 15.445313 17.285156 15.476563 17.453125.269531 1.425781 1.519531 2.441406 2.945313 2.441406.082031 0 .167968-.003906.25-.011719 1.53125-.125 2.71875-1.386718 2.753906-2.921874.257812-11.417969 16.664062-17.269532 16.824218-17.324219 1.351563-.46875 2.1875-1.824219 1.992188-3.242188-.199219-1.417969-1.367188-2.503906-2.796875-2.585937zm-19.167969 13.589844c-1.847656-3.773438-4.679687-7.894532-8.894531-10.558594 3.710937-2.082032 7.394531-5.261719 9.742187-9.835938 2.113282 3.75 5.308594 7.910156 9.882813 10.449219-3.699219 2.199219-7.980469 5.480469-10.730469 9.945313zm0 0" fill="#3a312a"/><path d="m159.804688 3.601562v48.179688c5.402343-.839844 10.921874-1.261719 16.542968-1.261719 5.617188 0 11.136719.421875 16.539063 1.261719v-48.179688zm0 0" fill="#8ac6dd"/><path d="m192.886719.601562h-33.082031c-1.65625 0-3 1.34375-3 3v48.179688c0 .875.382812 1.707031 1.050781 2.277344.664062.570312 1.53125.816406 2.410156.6875 10.449219-1.625 21.714844-1.625 32.160156 0 .152344.023437.304688.035156.457031.035156.710938 0 1.40625-.25 1.953126-.71875.667968-.570312 1.046874-1.402344 1.046874-2.28125v-48.179688c.003907-1.65625-1.339843-3-2.996093-3zm-3 47.734376c-4.441407-.542969-8.980469-.816407-13.542969-.816407-4.558594 0-9.097656.273438-13.539062.816407v-41.734376h27.078124v41.734376zm0 0" fill="#3a312a"/><path d="m176.347656 50.523438c-59 0-106.953125 47.167968-108.238281 105.84375h216.472656c-1.285156-58.675782-49.238281-105.84375-108.234375-105.84375zm0 0" fill="#fce8cb"/><path d="m254.207031 79.300781c-20.917969-20.492187-48.570312-31.777343-77.863281-31.777343s-56.945312 11.285156-77.859375 31.777343c-20.882813 20.457031-32.734375 47.804688-33.375 77.003907-.015625.804687.289063 1.585937.855469 2.164062.5625.578125 1.335937.902344 2.144531.902344h216.472656c.804688 0 1.582031-.324219 2.144531-.902344s.871094-1.359375.855469-2.164062c-.636719-29.199219-12.492187-56.546876-33.375-77.003907zm-182.988281 74.070313c1.339844-26.46875 12.441406-51.148438 31.464844-69.785156 19.789062-19.386719 45.949218-30.0625 73.664062-30.0625 27.710938 0 53.871094 10.675781 73.660156 30.0625 19.027344 18.636718 30.128907 43.316406 31.464844 69.785156zm0 0" fill="#3a312a"/><path d="m71.699219 189.179688 7.882812 65.339843 10.796875 89.480469 3.601563 29.71875 1 8.28125 3.480469 28.878906 1.539062 12.78125 1.160156 9.699219c1.101563 9.140625 8.859375 16 18.039063 16h114.28125c9.179687 0 16.941406-6.859375 18.039062-16l1.160157-9.679687 6.039062-50.019532 3.582031-29.660156 10.800781-89.480469 7.878907-65.339843zm0 0" fill="#f16c7a"/><path d="m283.222656 187.191406c-.570312-.644531-1.386718-1.011718-2.246094-1.011718h-41.457031c-1.65625 0-3 1.34375-3 3s1.34375 3 3 3h38.078125l-29.054687 240.824218c-.917969 7.613282-7.394531 13.355469-15.0625 13.355469h-114.28125c-7.667969 0-14.144531-5.742187-15.0625-13.355469l-29.054688-240.824218h134.265625c1.65625 0 3-1.34375 3-3s-1.34375-3-3-3h-137.648437c-.859375 0-1.675781.367187-2.246094 1.011718-.570313.640625-.835937 1.496094-.734375 2.347656l18.679688 154.824219 10.78125 89.355469c1.28125 10.628906 10.316406 18.640625 21.019531 18.640625h114.277343c10.707032 0 19.742188-8.011719 21.023438-18.640625l29.457031-244.179688c.101563-.851562-.164062-1.707031-.734375-2.347656zm0 0" fill="#3a312a"/><path d="m293.070312 156.375h-233.449218c-9.0625 0-16.40625 7.34375-16.40625 16.40625s7.34375 16.40625 16.40625 16.40625h233.449218c9.0625 0 16.40625-7.34375 16.40625-16.40625s-7.34375-16.40625-16.40625-16.40625zm0 0" fill="#fce8cb"/><path d="m293.070312 153.375h-233.449218c-10.703125 0-19.410156 8.707031-19.410156 19.40625s8.707031 19.40625 19.410156 19.40625h149.726562c1.65625 0 3-1.34375 3-3s-1.34375-3-3-3h-149.726562c-7.394532 0-13.410156-6.015625-13.410156-13.40625 0-7.394531 6.015624-13.40625 13.410156-13.40625h233.449218c7.394532 0 13.40625 6.011719 13.40625 13.40625 0 7.390625-6.011718 13.40625-13.40625 13.40625h-53.550781c-1.65625 0-3 1.34375-3 3s1.34375 3 3 3h53.550781c10.703126 0 19.40625-8.707031 19.40625-19.40625 0-10.703125-8.703124-19.40625-19.40625-19.40625zm0 0" fill="#3a312a"/><path d="m223.011719 254.519531c-11.769531-12.269531-28.316407-19.925781-46.664063-19.925781s-34.898437 7.65625-46.667968 19.925781h-50.09375l10.800781 89.480469h39.292969c11.769531 12.273438 28.320312 19.929688 46.667968 19.929688s34.898438-7.65625 46.664063-19.929688h39.292969l10.800781-89.480469zm0 0" fill="#d7e057"/><path d="m275.351562 252.53125c-.566406-.644531-1.386718-1.011719-2.242187-1.011719h-48.832031c-12.796875-12.859375-29.765625-19.925781-47.929688-19.925781-18.164062 0-35.132812 7.066406-47.929687 19.925781h-8.046875c-1.65625 0-3 1.34375-3 3s1.34375 3 3 3h9.308594c.820312 0 1.601562-.332031 2.167968-.921875 11.75-12.253906 27.554688-19.003906 44.5-19.003906 16.941406 0 32.746094 6.75 44.5 19.003906.566406.589844 1.347656.921875 2.164063.921875h46.710937l-10.078125 83.480469h-36.628906c-.820313 0-1.601563.335938-2.167969.925781-11.75 12.253907-27.554687 19.003907-44.5 19.003907-16.949218 0-32.75-6.75-44.5-19.003907-.566406-.589843-1.347656-.925781-2.164062-.925781h-36.636719l-10.078125-83.480469h9.351562c1.660157 0 3-1.34375 3-3s-1.339843-3-3-3h-12.734374c-.859376 0-1.675782.367188-2.246094 1.011719-.570313.640625-.835938 1.496094-.734375 2.347656l10.800781 89.480469c.183594 1.507813 1.460938 2.640625 2.976562 2.640625h38.03125c12.796876 12.863281 29.765626 19.929688 47.929688 19.929688 18.167969 0 35.136719-7.066407 47.933594-19.929688h38.027344c1.519531 0 2.796874-1.132812 2.980468-2.640625l10.800782-89.480469c.105468-.851562-.164063-1.707031-.734376-2.347656zm0 0" fill="#3a312a"/><path d="m219.070312 299.261719c0 23.59375-19.128906 42.722656-42.722656 42.722656-23.597656 0-42.726562-19.128906-42.726562-42.722656 0-23.597657 19.128906-42.726563 42.726562-42.726563 23.59375 0 42.722656 19.128906 42.722656 42.726563zm0 0" fill="#fce8cb"/><path d="m176.347656 253.539062c-25.214844 0-45.722656 20.511719-45.722656 45.722657 0 25.210937 20.507812 45.722656 45.722656 45.722656 25.210938 0 45.722656-20.511719 45.722656-45.722656 0-25.210938-20.511718-45.722657-45.722656-45.722657zm0 85.445313c-21.90625 0-39.722656-17.820313-39.722656-39.722656 0-21.902344 17.820312-39.722657 39.722656-39.722657s39.722656 17.820313 39.722656 39.722657c0 21.902343-17.820312 39.722656-39.722656 39.722656zm0 0" fill="#3a312a"/><path d="m176.464844 398.304688c0 14.015624-11.363282 25.378906-25.378906 25.378906-14.015626 0-25.378907-11.363282-25.378907-25.378906 0-14.015626 11.363281-25.378907 25.378907-25.378907 14.015624 0 25.378906 11.363281 25.378906 25.378907zm0 0" fill="#87796f"/><path d="m151.085938 369.925781c-15.648438 0-28.378907 12.730469-28.378907 28.378907 0 15.644531 12.730469 28.378906 28.378907 28.378906 15.648437 0 28.378906-12.730469 28.378906-28.378906 0-15.648438-12.730469-28.378907-28.378906-28.378907zm0 50.757813c-12.339844 0-22.378907-10.042969-22.378907-22.378906 0-12.339844 10.042969-22.378907 22.378907-22.378907 12.339843 0 22.378906 10.039063 22.378906 22.378907 0 12.335937-10.039063 22.378906-22.378906 22.378906zm0 0" fill="#3a312a"/><path d="m227.21875 398.304688c0 14.015624-11.359375 25.378906-25.375 25.378906s-25.378906-11.363282-25.378906-25.378906c0-14.015626 11.363281-25.378907 25.378906-25.378907s25.375 11.363281 25.375 25.378907zm0 0" fill="#87796f"/><path d="m201.84375 369.925781c-15.648438 0-28.378906 12.730469-28.378906 28.378907 0 15.644531 12.730468 28.378906 28.378906 28.378906 15.644531 0 28.375-12.730469 28.375-28.378906 0-15.648438-12.730469-28.378907-28.375-28.378907zm0 50.757813c-12.339844 0-22.378906-10.042969-22.378906-22.378906 0-12.339844 10.042968-22.378907 22.378906-22.378907 12.339844 0 22.375 10.039063 22.375 22.378907 0 12.335937-10.035156 22.378906-22.375 22.378906zm0 0" fill="#3a312a"/><path d="m100.339844 372.921875c-2.199219 0-4.320313.277344-6.359375.796875l1 8.28125 3.480469 28.878906 1.539062 12.78125c.121094.019532.21875.019532.339844.019532 14 0 25.359375-11.359376 25.359375-25.378907s-11.359375-25.378906-25.359375-25.378906zm0 0" fill="#87796f"/><path d="m100.339844 369.921875c-2.390625 0-4.78125.296875-7.105469.890625-1.457031.375-2.414063 1.773438-2.234375 3.269531l6.019531 49.9375c.160157 1.328125 1.179688 2.386719 2.496094 2.601563.289063.046875.53125.058594.824219.058594 15.636718 0 28.359375-12.730469 28.359375-28.378907 0-15.648437-12.722657-28.378906-28.359375-28.378906zm2.308594 50.667969-5.355469-44.460938c1.007812-.140625 2.027343-.207031 3.046875-.207031 12.328125 0 22.359375 10.039063 22.359375 22.378906 0 11.597657-8.863281 21.164063-20.050781 22.289063zm0 0" fill="#3a312a"/><path d="m252.601562 372.921875c-14.019531 0-25.382812 11.359375-25.382812 25.378906s11.363281 25.378907 25.382812 25.378907h.078126l6.039062-50.019532c-1.957031-.480468-4-.738281-6.117188-.738281zm0 0" fill="#87796f"/><path d="m259.433594 370.746094c-2.234375-.546875-4.535156-.824219-6.832032-.824219-15.648437 0-28.382812 12.730469-28.382812 28.378906 0 15.648438 12.734375 28.378907 28.460938 28.378907 1.519531 0 2.796874-1.132813 2.976562-2.640626l6.042969-50.019531c.179687-1.503906-.792969-2.910156-2.265625-3.273437zm-9.398438 49.789062c-11.136718-1.273437-19.816406-10.757812-19.816406-22.234375 0-12.339843 10.039062-22.378906 22.378906-22.378906.9375 0 1.875.058594 2.800782.175781zm0 0" fill="#3a312a"/><path d="m176.464844 398.304688c0 14.015624-11.363282 25.378906-25.378906 25.378906-14.015626 0-25.378907-11.363282-25.378907-25.378906 0-14.015626 11.363281-25.378907 25.378907-25.378907 14.015624 0 25.378906 11.363281 25.378906 25.378907zm0 0" fill="#87796f"/><path d="m151.085938 369.925781c-15.648438 0-28.378907 12.730469-28.378907 28.378907 0 15.644531 12.730469 28.378906 28.378907 28.378906 15.648437 0 28.378906-12.730469 28.378906-28.378906 0-15.648438-12.730469-28.378907-28.378906-28.378907zm0 50.757813c-12.339844 0-22.378907-10.042969-22.378907-22.378906 0-12.339844 10.042969-22.378907 22.378907-22.378907 12.339843 0 22.378906 10.039063 22.378906 22.378907 0 12.335937-10.039063 22.378906-22.378906 22.378906zm0 0" fill="#3a312a"/><path d="m201.839844 423.679688c-14.019532 0-25.378906 11.359374-25.378906 25.378906v.300781h50.757812v-.300781c0-14.019532-11.359375-25.378906-25.378906-25.378906zm0 0" fill="#87796f"/><path d="m201.839844 420.679688c-15.648438 0-28.378906 12.734374-28.378906 28.378906v.300781c0 1.65625 1.34375 3 3 3h50.757812c1.65625 0 3-1.34375 3-3v-.300781c0-15.644532-12.730469-28.378906-28.378906-28.378906zm-22.21875 25.679687c1.335937-11.070313 10.792968-19.679687 22.21875-19.679687 11.425781 0 20.875 8.609374 22.214844 19.679687zm0 0" fill="#3a312a"/><path d="m151.082031 423.679688c-14 0-25.382812 11.359374-25.382812 25.378906v.300781h50.761719v-.300781c0-14.019532-11.359376-25.378906-25.378907-25.378906zm0 0" fill="#87796f"/><path d="m151.078125 420.679688c-15.648437 0-28.378906 12.734374-28.378906 28.378906v.300781c0 1.65625 1.339843 3 3 3h50.757812c1.65625 0 3-1.34375 3-3v-.300781c0-15.644532-12.730469-28.378906-28.378906-28.378906zm-22.214844 25.679687c1.335938-11.070313 10.789063-19.679687 22.21875-19.679687 11.425781 0 20.878907 8.609374 22.214844 19.679687zm0 0" fill="#3a312a"/><path d="m176.464844 398.304688c-14.015625 0-25.378906 11.363281-25.378906 25.378906s11.363281 25.375 25.378906 25.375 25.378906-11.359375 25.378906-25.375-11.363281-25.378906-25.378906-25.378906zm0 0" fill="#87796f"/><path d="m176.464844 395.304688c-15.648438 0-28.378906 12.730468-28.378906 28.378906 0 15.648437 12.730468 28.375 28.378906 28.375 15.648437 0 28.378906-12.726563 28.378906-28.375 0-15.648438-12.730469-28.378906-28.378906-28.378906zm0 50.753906c-12.339844 0-22.378906-10.039063-22.378906-22.375 0-12.339844 10.039062-22.378906 22.378906-22.378906s22.378906 10.039062 22.378906 22.378906-10.039062 22.375-22.378906 22.375zm0 0" fill="#3a312a"/><path d="m227.222656 398.304688c-14.015625 0-25.378906 11.363281-25.378906 25.378906s11.363281 25.375 25.378906 25.375 25.378906-11.359375 25.378906-25.375-11.363281-25.378906-25.378906-25.378906zm0 0" fill="#87796f"/><path d="m227.21875 395.304688c-15.644531 0-28.375 12.730468-28.375 28.378906 0 15.648437 12.730469 28.375 28.375 28.375 15.648438 0 28.378906-12.726563 28.378906-28.375.003906-15.648438-12.730468-28.378906-28.378906-28.378906zm0 50.753906c-12.335938 0-22.375-10.039063-22.375-22.375 0-12.339844 10.039062-22.378906 22.375-22.378906 12.339844 0 22.378906 10.039062 22.378906 22.378906.003906 12.339844-10.039062 22.375-22.378906 22.375zm0 0" fill="#3a312a"/><path d="m125.707031 398.304688c-14.015625 0-25.375 11.363281-25.375 25.378906s11.359375 25.375 25.375 25.375 25.378907-11.359375 25.378907-25.375-11.363282-25.378906-25.378907-25.378906zm0 0" fill="#87796f"/><path d="m125.707031 395.304688c-15.648437 0-28.375 12.730468-28.375 28.378906 0 15.648437 12.726563 28.375 28.375 28.375 15.648438 0 28.378907-12.726563 28.378907-28.375 0-15.648438-12.730469-28.378906-28.378907-28.378906zm0 50.753906c-12.335937 0-22.375-10.039063-22.375-22.375 0-12.339844 10.035157-22.378906 22.375-22.378906 12.339844 0 22.378907 10.039062 22.378907 22.378906s-10.039063 22.375-22.378907 22.375zm0 0" fill="#3a312a"/><path d="m250 83.582031c-19.78125-19.382812-45.941406-30.0625-73.660156-30.0625-4.257813 0-8.460938.261719-12.621094.761719 22.960938 2.71875 44.28125 12.898438 61.019531 29.300781 19.042969 18.636719 30.140625 43.316407 31.480469 69.777344h25.261719c-1.339844-26.460937-12.441407-51.140625-31.480469-69.777344zm0 0" fill="#decaad"/><path d="m252.339844 192.179688-7.160156 59.339843h25.261718l7.160156-59.339843zm0 0" fill="#d34e5c"/><path d="m233.660156 347-2.800781 23.140625c-1.160156-.140625-2.339844-.21875-3.519531-.21875-4.601563 0-8.917969 1.097656-12.738282 3.058594 5.4375 2.757812 9.878907 7.21875 12.617188 12.699219 4.660156-9.320313 14.28125-15.757813 25.382812-15.757813 1.179688 0 2.359376.078125 3.519532.21875l2.800781-23.140625zm0 0" fill="#d34e5c"/><path d="m293.082031 159.378906h-25.261719c7.378907 0 13.398438 6 13.398438 13.402344 0 7.398438-6.019531 13.398438-13.398438 13.398438h25.261719c7.378907 0 13.398438-6 13.398438-13.398438 0-7.402344-6.019531-13.402344-13.398438-13.402344zm0 0" fill="#decaad"/><path d="m244.460938 257.519531-10.082032 83.480469h25.261719l10.078125-83.480469zm0 0" fill="#b9c239"/></svg>